HIERARCHY
ROOT Hips
{
	OFFSET 0.000000 97.167313 0.000000
	CHANNELS 6 Xposition Yposition Zposition Xrotation Yrotation Zrotation
	JOINT Spine
	{
		OFFSET 0.000000 13.784798 0.064400
		CHANNELS 3 Xrotation Yrotation Zrotation
		JOINT Spine1
		{
			OFFSET 0.000000 12.037903 0.404700
			CHANNELS 3 Xrotation Yrotation Zrotation
			JOINT Spine2
			{
				OFFSET 0.000000 17.795601 0.420200
				CHANNELS 3 Xrotation Yrotation Zrotation
				JOINT Neck
				{
					OFFSET 0.000000 39.131302 11.954600
					CHANNELS 3 Xrotation Yrotation Zrotation
					JOINT Head
					{
						OFFSET 0.000000 14.456192 15.627699
						CHANNELS 3 Xrotation Yrotation Zrotation
						JOINT HeadTop_End
						{
							OFFSET 0.000000 15.703506 7.603401
							CHANNELS 3 Xrotation Yrotation Zrotation
							End Site
							{
								OFFSET 0.000000 17.447403 0.000000
							}
						}
					}
				}
				JOINT LeftShoulder
				{
					OFFSET 17.399500 24.608795 1.168800
					CHANNELS 3 Xrotation Yrotation Zrotation
					JOINT LeftArm
					{
						OFFSET 18.980635 5.765305 1.818600
						CHANNELS 3 Xrotation Yrotation Zrotation
						JOINT LeftForeArm
						{
							OFFSET 49.290169 0.000000 0.000000
							CHANNELS 3 Xrotation Yrotation Zrotation
							JOINT LeftHand
							{
								OFFSET 31.562012 0.000000 0.000000
								CHANNELS 3 Xrotation Yrotation Zrotation
								JOINT LeftHandThumb1
								{
									OFFSET 6.133995 -4.388519 7.076070
									CHANNELS 3 Xrotation Yrotation Zrotation
									JOINT LeftHandThumb2
									{
										OFFSET 6.037666 -3.485840 3.485847
										CHANNELS 3 Xrotation Yrotation Zrotation
										JOINT LeftHandThumb3
										{
											OFFSET 6.496506 -3.750763 3.750761
											CHANNELS 3 Xrotation Yrotation Zrotation
											JOINT LeftHandThumb4
											{
												OFFSET 5.616882 -3.242905 3.242910
												CHANNELS 3 Xrotation Yrotation Zrotation
												End Site
												{
													OFFSET -1.254608 7.132141 0.375429
												}
											}
										}
									}
								}
								JOINT LeftHandPinky1
								{
									OFFSET 18.920792 -0.453171 -11.426712
									CHANNELS 3 Xrotation Yrotation Zrotation
									JOINT LeftHandPinky2
									{
										OFFSET 4.919586 0.000000 0.000000
										CHANNELS 3 Xrotation Yrotation Zrotation
										JOINT LeftHandPinky3
										{
											OFFSET 5.233047 0.000000 0.000000
											CHANNELS 3 Xrotation Yrotation Zrotation
											JOINT LeftHandPinky4
											{
												OFFSET 5.571716 0.000000 0.000000
												CHANNELS 3 Xrotation Yrotation Zrotation
												End Site
												{
													OFFSET -3.459808 4.342407 -0.466164
												}
											}
										}
									}
								}
								JOINT LeftHandRing1
								{
									OFFSET 22.726120 -0.094986 -6.500475
									CHANNELS 3 Xrotation Yrotation Zrotation
									JOINT LeftHandRing2
									{
										OFFSET 6.408615 0.000000 0.000000
										CHANNELS 3 Xrotation Yrotation Zrotation
										JOINT LeftHandRing3
										{
											OFFSET 6.150223 0.000000 0.000000
											CHANNELS 3 Xrotation Yrotation Zrotation
											JOINT LeftHandRing4
											{
												OFFSET 6.145386 0.000000 0.000000
												CHANNELS 3 Xrotation Yrotation Zrotation
												End Site
												{
													OFFSET -3.671402 4.923981 -0.202372
												}
											}
										}
									}
								}
								JOINT LeftHandMiddle1
								{
									OFFSET 23.373947 0.000000 0.000001
									CHANNELS 3 Xrotation Yrotation Zrotation
									JOINT LeftHandMiddle2
									{
										OFFSET 6.996567 0.000000 0.000000
										CHANNELS 3 Xrotation Yrotation Zrotation
										JOINT LeftHandMiddle3
										{
											OFFSET 7.015945 0.000000 0.000000
											CHANNELS 3 Xrotation Yrotation Zrotation
											JOINT LeftHandMiddle4
											{
												OFFSET 7.721573 0.000000 0.000000
												CHANNELS 3 Xrotation Yrotation Zrotation
												End Site
												{
													OFFSET -4.651108 6.158463 0.251582
												}
											}
										}
									}
								}
								JOINT LeftHandIndex1
								{
									OFFSET 21.310577 -0.490082 6.209344
									CHANNELS 3 Xrotation Yrotation Zrotation
									JOINT LeftHandIndex2
									{
										OFFSET 7.536453 0.000000 0.000000
										CHANNELS 3 Xrotation Yrotation Zrotation
										JOINT LeftHandIndex3
										{
											OFFSET 7.512344 0.000000 0.000000
											CHANNELS 3 Xrotation Yrotation Zrotation
											JOINT LeftHandIndex4
											{
												OFFSET 10.212402 0.000000 0.000001
												CHANNELS 3 Xrotation Yrotation Zrotation
												End Site
												{
													OFFSET -5.180801 8.690506 1.388433
												}
											}
										}
									}
								}
							}
						}
					}
				}
				JOINT RightShoulder
				{
					OFFSET -17.399500 24.608795 1.168800
					CHANNELS 3 Xrotation Yrotation Zrotation
					JOINT RightArm
					{
						OFFSET -18.980635 5.765305 1.818600
						CHANNELS 3 Xrotation Yrotation Zrotation
						JOINT RightForeArm
						{
							OFFSET -49.290169 0.000000 0.000000
							CHANNELS 3 Xrotation Yrotation Zrotation
							JOINT RightHand
							{
								OFFSET -31.562012 0.000000 0.000000
								CHANNELS 3 Xrotation Yrotation Zrotation
								JOINT RightHandThumb1
								{
									OFFSET -6.133995 -4.388519 7.076070
									CHANNELS 3 Xrotation Yrotation Zrotation
									JOINT RightHandThumb2
									{
										OFFSET -6.037666 -3.485840 3.485847
										CHANNELS 3 Xrotation Yrotation Zrotation
										JOINT RightHandThumb3
										{
											OFFSET -6.496506 -3.750763 3.750761
											CHANNELS 3 Xrotation Yrotation Zrotation
											JOINT RightHandThumb4
											{
												OFFSET -5.616882 -3.242905 3.242910
												CHANNELS 3 Xrotation Yrotation Zrotation
												End Site
												{
													OFFSET 1.254608 7.132141 0.375429
												}
											}
										}
									}
								}
								JOINT RightHandIndex1
								{
									OFFSET -21.310577 -0.490082 6.209344
									CHANNELS 3 Xrotation Yrotation Zrotation
									JOINT RightHandIndex2
									{
										OFFSET -7.536453 0.000000 0.000000
										CHANNELS 3 Xrotation Yrotation Zrotation
										JOINT RightHandIndex3
										{
											OFFSET -7.512344 0.000000 0.000000
											CHANNELS 3 Xrotation Yrotation Zrotation
											JOINT RightHandIndex4
											{
												OFFSET -10.212402 0.000000 0.000001
												CHANNELS 3 Xrotation Yrotation Zrotation
												End Site
												{
													OFFSET 5.180801 8.690506 1.388433
												}
											}
										}
									}
								}
								JOINT RightHandMiddle1
								{
									OFFSET -23.373947 0.000000 0.000001
									CHANNELS 3 Xrotation Yrotation Zrotation
									JOINT RightHandMiddle2
									{
										OFFSET -6.996567 0.000000 0.000000
										CHANNELS 3 Xrotation Yrotation Zrotation
										JOINT RightHandMiddle3
										{
											OFFSET -7.015945 0.000000 0.000000
											CHANNELS 3 Xrotation Yrotation Zrotation
											JOINT RightHandMiddle4
											{
												OFFSET -7.721573 0.000000 0.000000
												CHANNELS 3 Xrotation Yrotation Zrotation
												End Site
												{
													OFFSET 4.651108 6.158463 0.251582
												}
											}
										}
									}
								}
								JOINT RightHandRing1
								{
									OFFSET -22.726120 -0.094986 -6.500475
									CHANNELS 3 Xrotation Yrotation Zrotation
									JOINT RightHandRing2
									{
										OFFSET -6.408615 0.000000 0.000000
										CHANNELS 3 Xrotation Yrotation Zrotation
										JOINT RightHandRing3
										{
											OFFSET -6.150223 0.000000 0.000000
											CHANNELS 3 Xrotation Yrotation Zrotation
											JOINT RightHandRing4
											{
												OFFSET -6.145386 0.000000 0.000000
												CHANNELS 3 Xrotation Yrotation Zrotation
												End Site
												{
													OFFSET 3.671402 4.923981 -0.202372
												}
											}
										}
									}
								}
								JOINT RightHandPinky1
								{
									OFFSET -18.920792 -0.453171 -11.426712
									CHANNELS 3 Xrotation Yrotation Zrotation
									JOINT RightHandPinky2
									{
										OFFSET -4.919586 0.000000 0.000000
										CHANNELS 3 Xrotation Yrotation Zrotation
										JOINT RightHandPinky3
										{
											OFFSET -5.233047 0.000000 0.000000
											CHANNELS 3 Xrotation Yrotation Zrotation
											JOINT RightHandPinky4
											{
												OFFSET -5.571716 0.000000 0.000000
												CHANNELS 3 Xrotation Yrotation Zrotation
												End Site
												{
													OFFSET 3.459808 4.342407 -0.466164
												}
											}
										}
									}
								}
							}
						}
					}
				}
			}
		}
	}
	JOINT LeftUpLeg
	{
		OFFSET 19.899099 -7.885101 -3.429500
		CHANNELS 3 Xrotation Yrotation Zrotation
		JOINT LeftLeg
		{
			OFFSET 1.745560 -36.997807 10.304700
			CHANNELS 3 Xrotation Yrotation Zrotation
			JOINT LeftFoot
			{
				OFFSET -1.745558 -29.803308 -13.615400
				CHANNELS 3 Xrotation Yrotation Zrotation
				JOINT LeftToeBase
				{
					OFFSET 1.181900 -18.539904 15.226099
					CHANNELS 3 Xrotation Yrotation Zrotation
					JOINT LeftToe_End
					{
						OFFSET -0.863701 1.402801 16.534700
						CHANNELS 3 Xrotation Yrotation Zrotation
						End Site
						{
							OFFSET 0.000000 16.616566 0.000000
						}
					}
				}
			}
		}
	}
	JOINT RightUpLeg
	{
		OFFSET -19.899099 -7.885101 -3.429500
		CHANNELS 3 Xrotation Yrotation Zrotation
		JOINT RightLeg
		{
			OFFSET -1.745560 -36.997807 10.304700
			CHANNELS 3 Xrotation Yrotation Zrotation
			JOINT RightFoot
			{
				OFFSET 1.745558 -29.803308 -13.615400
				CHANNELS 3 Xrotation Yrotation Zrotation
				JOINT RightToeBase
				{
					OFFSET -1.181900 -18.539904 15.226099
					CHANNELS 3 Xrotation Yrotation Zrotation
					JOINT RightToe_End
					{
						OFFSET 0.863701 1.402801 16.534700
						CHANNELS 3 Xrotation Yrotation Zrotation
						End Site
						{
							OFFSET 0.000000 16.616566 0.000000
						}
					}
				}
			}
		}
	}
}
MOTION
Frames: 4
Frame Time: 0.033333
8.013199 28.585098 17.226501 -51.080683 -10.987927 36.038264 62.743894 -22.942069 4.349968 9.014722 -6.321029 -0.560408 9.124298 -6.394247 0.168024 1.288452 1.890533 -1.683978 -3.668584 5.555535 -9.863334 -0.000001 0.000002 0.000001 13.328231 -50.619136 10.411706 -16.591764 24.167475 -1.353249 -0.000029 -122.744674 -0.000059 -18.218437 -10.207679 -20.967229 40.627410 -16.523006 7.617280 6.911798 19.542452 1.979776 -6.426713 5.540946 14.669156 0.000000 -0.000002 0.000000 6.109336 17.155874 -23.546189 0.380787 2.079461 -20.751687 0.380779 2.079458 -20.751706 -0.000000 -0.000001 -0.000002 2.120321 8.181491 -24.019883 0.393467 2.112583 -21.098188 0.393467 2.112595 -21.098200 -0.000000 -0.000001 -0.000000 -0.468811 1.104181 -14.915535 0.215177 1.574730 -15.561215 0.215196 1.574744 -15.561181 0.000003 -0.000001 0.000001 -0.453898 -7.126557 -3.588278 0.184702 1.460883 -14.410309 0.184708 1.460889 -14.410270 -0.000002 0.000003 -0.000001 1.244776 15.236569 3.373230 -18.782486 -29.180737 81.431571 0.000017 39.421325 -0.000008 14.778841 -11.154474 -43.283076 -13.964556 17.994675 -8.156010 6.417229 -14.929439 -2.153381 -10.976965 24.544833 -6.960790 0.000002 -0.000001 -0.000002 20.747866 12.104779 -50.816355 0.036991 -0.586449 7.218325 0.037120 -0.587454 7.230834 -0.000001 -0.000001 -0.000003 1.633282 1.228071 -51.010643 0.040009 -0.609789 7.507331 0.040005 -0.609786 7.507198 0.000000 -0.000000 -0.000007 -7.567669 -6.576343 -50.472386 0.005857 -0.233761 2.870696 0.014345 0.365636 -4.492993 -0.000000 0.000002 -0.000005 -21.962069 -10.468569 -48.927271 0.134409 -1.111953 13.784063 0.000257 0.049218 -0.604195 0.000002 0.000004 0.000004 33.893458 -1.083631 -153.553513 19.070011 20.536661 146.206305 43.665444 14.241851 -43.347816 -17.057566 -0.000008 0.000004 -0.000000 0.000002 0.000000 -24.382542 -32.636946 32.159560 72.187907 -31.004547 -1.179116 12.980456 -10.887145 -17.281857 -33.435238 0.000004 0.000011 0.000000 0.000000 -0.000001 
10.465542 29.617310 13.734699 -42.833937 -10.631426 40.367077 62.266853 -16.715513 4.073173 8.389520 -5.050987 -0.393725 8.451490 -5.161724 0.165609 0.320437 0.834833 -2.497325 -11.856502 -4.009785 -13.699605 -0.000000 -0.000000 -0.000000 9.041794 -50.580355 3.179507 -20.370054 10.359844 2.441325 -0.000050 -119.617390 -0.000073 -13.239938 -9.362390 -15.913205 40.883443 -16.493560 7.691074 6.908803 19.686658 1.922781 -6.421519 5.607629 14.685692 -0.000000 0.000001 0.000000 6.166113 17.104168 -23.858298 0.383831 2.087478 -20.835403 0.385378 2.091505 -20.877701 -0.000002 0.000000 -0.000002 2.155306 8.206913 -24.344722 0.396587 2.120657 -21.182693 0.398165 2.124724 -21.225368 0.000002 -0.000002 0.000005 -0.464135 1.176109 -15.196694 0.216316 1.578849 -15.602908 0.218292 1.585858 -15.674111 0.000004 -0.000000 0.000001 -0.479286 -6.994047 -3.774676 0.186206 1.466752 -14.469389 0.187256 1.470766 -14.509951 -0.000003 -0.000000 0.000003 1.265915 15.345200 3.447664 -18.549363 -30.423281 77.707609 0.000005 44.201989 0.000030 5.604701 -9.177778 -45.923170 -13.964558 17.994664 -8.155995 6.417220 -14.929441 -2.153412 -10.976954 24.544823 -6.960794 -0.000001 -0.000001 -0.000001 20.747868 12.104783 -50.816358 0.036992 -0.586450 7.218320 0.037117 -0.587462 7.230824 -0.000002 0.000000 0.000001 1.633280 1.228071 -51.010650 0.040010 -0.609790 7.507332 0.040003 -0.609792 7.507203 0.000001 0.000000 -0.000006 -7.567667 -6.576342 -50.472383 0.005859 -0.233757 2.870700 0.014345 0.365630 -4.492994 -0.000000 0.000001 -0.000005 -21.962079 -10.468568 -48.927271 0.134411 -1.111946 13.784056 0.000263 0.049212 -0.604180 0.000003 -0.000003 0.000004 64.599772 38.165857 -131.662142 78.090734 50.949724 73.113685 -27.519198 20.450404 -22.702787 -11.369678 -0.096193 2.986596 -0.000000 -0.000000 0.000000 -32.542071 -32.735464 31.150372 71.159581 -33.220961 -4.342216 4.294327 -11.256321 -27.845203 -31.154955 0.000002 0.000001 -0.000002 -0.000000 0.000000 
12.298203 31.506500 6.151360 -35.961861 -8.144832 44.355662 61.313071 -13.514522 4.940743 7.949213 -4.365056 -0.164142 7.977450 -4.497027 0.296257 -0.357421 0.127421 -2.896996 -19.038961 -9.520716 -16.848866 0.000001 -0.000000 -0.000000 4.831088 -50.431832 -4.102598 -24.838094 -3.823512 4.504961 -0.000002 -117.076109 -0.000030 -8.372476 -8.324707 -10.684736 41.537089 -16.419162 7.876442 6.900995 20.055373 1.777468 -6.412909 5.775935 14.738920 0.000001 0.000001 -0.000002 6.308511 16.971360 -24.654775 0.391666 2.107955 -21.049791 0.397224 2.122303 -21.199813 -0.000003 0.000000 -0.000002 2.247326 8.274752 -25.174920 0.404608 2.141252 -21.398713 0.410312 2.155698 -21.550475 0.000003 0.000002 0.000005 -0.449652 1.359597 -15.915386 0.219266 1.589345 -15.709416 0.226346 1.614304 -15.962772 0.000000 0.000000 0.000006 -0.540310 -6.655210 -4.250033 0.190110 1.481762 -14.620906 0.193827 1.496011 -14.764687 0.000001 0.000003 0.000002 1.317013 15.616510 3.637051 -20.576447 -30.649863 73.137433 0.000012 46.564521 -0.000014 -0.700198 -7.070348 -48.106586 -13.964554 17.994671 -8.156011 6.417229 -14.929445 -2.153378 -10.976972 24.544821 -6.960783 0.000002 -0.000001 0.000002 20.747871 12.104786 -50.816358 0.036992 -0.586449 7.218325 0.037120 -0.587453 7.230844 -0.000001 -0.000002 0.000003 1.633279 1.228068 -51.010660 0.040009 -0.609791 7.507335 0.040007 -0.609780 7.507198 -0.000000 -0.000000 -0.000001 -7.567672 -6.576345 -50.472393 0.005860 -0.233750 2.870707 0.014345 0.365632 -4.492994 0.000000 0.000001 -0.000001 -21.962087 -10.468567 -48.927278 0.134408 -1.111938 13.784060 0.000263 0.049216 -0.604183 -0.000001 0.000000 0.000004 28.566740 54.298966 -69.016890 118.298931 27.491368 23.643970 -46.469004 17.257306 -18.858484 -14.193309 -1.259434 10.516734 -0.000000 0.000001 0.000000 -43.918335 -29.972031 24.823021 64.810135 -32.200531 -5.413957 2.022060 -11.566087 -38.045841 -28.599143 -0.000012 0.000005 0.000003 0.000000 -0.000002 
14.746925 34.058823 -2.088783 -30.264899 -4.931975 47.256105 59.888472 -12.593810 6.795161 7.739125 -4.377196 0.001139 7.755640 -4.498984 0.440923 -0.654112 -0.147000 -2.933232 -23.646250 -10.663273 -19.001730 -0.000002 -0.000000 -0.000000 1.022155 -50.209171 -10.956879 -30.566613 -18.445175 3.483828 -0.000047 -113.059787 -0.000080 -4.662564 -6.221790 -6.170941 42.416609 -16.321073 8.119200 6.890131 20.552890 1.582338 -6.401498 6.002776 14.810703 -0.000001 -0.000000 -0.000001 6.494244 16.790789 -25.725708 0.402409 2.135623 -21.339833 0.413451 2.163660 -21.634025 -0.000001 0.000001 -0.000004 2.373247 8.363913 -26.294304 0.415563 2.168968 -21.689872 0.426957 2.197347 -21.988653 -0.000004 -0.000000 0.000007 -0.424425 1.605991 -16.884383 0.223278 1.603495 -15.853001 0.237447 1.652558 -16.351820 0.000000 -0.000002 0.000004 -0.613918 -6.198147 -4.888616 0.195455 1.502119 -14.826399 0.202899 1.529984 -15.108071 -0.000000 0.000003 -0.000001 1.397030 16.065092 3.951889 -26.049076 -28.379521 67.841742 0.000015 44.845444 -0.000016 -3.858123 -4.558443 -49.720639 -13.964558 17.994666 -8.155999 6.417229 -14.929448 -2.153379 -10.976958 24.544824 -6.960779 -0.000002 0.000000 0.000003 20.747873 12.104782 -50.816355 0.036989 -0.586447 7.218320 0.037119 -0.587455 7.230833 -0.000001 0.000000 -0.000001 1.633280 1.228069 -51.010653 0.040006 -0.609791 7.507331 0.040007 -0.609781 7.507198 0.000000 0.000000 -0.000008 -7.567662 -6.576345 -50.472369 0.005854 -0.233757 2.870691 0.014348 0.365637 -4.492983 0.000001 0.000001 -0.000007 -21.962081 -10.468580 -48.927271 0.134408 -1.111935 13.784055 0.000263 0.049212 -0.604182 0.000001 -0.000002 0.000007 -8.143687 44.693811 -7.955290 119.792830 1.406601 6.952687 -40.567372 2.949734 -10.459681 -10.453651 -0.152028 3.870144 -0.000000 -0.000000 0.000000 -54.802180 -26.089140 17.989426 58.657842 -29.030961 -5.382508 2.882027 -12.985053 -44.237025 -26.030595 -0.000013 0.000027 0.000001 0.000001 0.000002 
